<svg width="433" height="389" viewBox="0 0 433 389" fill="none" xmlns="http://www.w3.org/2000/svg">
<g clip-path="url(#clip0_165_7)">
<path d="M273.805 46.7136L359.797 36.2072L342.632 121.076L415.268 168.275L347.541 222.261L372.829 305.074L286.221 302.925L252.332 382.605L187.37 325.32L110.166 364.588L97.2433 278.975L12.8431 259.453L58.0114 185.568L5.90747 116.387L88.0272 88.8113L92.6099 2.3438L173.253 33.9714L232.365 -29.3199L273.805 46.7136Z" fill="#202020"/>
<path d="M253.7 388.64L186.82 329.661L107.328 370.095L94.029 281.949L7.13108 261.855L53.6315 185.785L0 114.556L84.545 86.1631L89.258 -2.85865L172.283 29.7023L233.147 -35.4558L275.81 42.828L364.344 32.0105L346.679 119.39L421.458 167.978L351.725 223.563L377.759 308.822L288.595 306.608L253.707 388.647L253.7 388.64ZM187.92 320.978L250.963 376.578L283.853 299.249L367.899 301.34L343.356 220.973L409.085 168.579L338.6 122.776L355.251 40.4113L271.799 50.6137L231.583 -23.1767L174.216 38.2478L95.9547 7.55363L91.5096 91.4669L11.8152 118.232L62.3771 185.366L18.5408 257.072L100.451 276.015L112.982 359.104L187.913 320.993L187.92 320.978Z" fill="#202020"/>
<path d="M322.354 42.1767L408.347 31.6631L391.189 116.532L463.817 163.73L396.09 217.717L421.378 300.53L334.77 298.381L300.881 378.069L235.927 320.776L158.715 360.044L145.8 274.431L61.3925 254.908L106.568 181.024L54.4641 111.85L136.584 84.2672L141.159 -2.20027L221.802 29.4345L280.921 -33.864L322.354 42.1767Z" fill="#FFFDE6"/>
<path d="M302.249 384.096L235.369 325.117L155.877 365.551L142.578 277.404L55.6803 257.311L102.181 181.241L48.542 110.019L133.087 81.6261L137.8 -7.3956L220.825 25.1654L281.696 -40L324.359 38.2838L412.893 27.4663L395.229 114.846L470.007 163.434L400.275 219.019L426.308 304.278L337.145 302.064L302.257 384.103L302.249 384.096ZM236.477 316.434L299.52 372.034L332.41 294.698L416.455 296.789L391.913 216.421L457.642 164.027L387.156 118.225L403.808 35.8598L320.356 46.0551L280.139 -27.7354L222.772 33.6891L144.511 2.99496L140.066 86.9082L60.3716 113.673L110.934 180.807L67.0973 252.513L149.007 271.457L161.539 354.545L236.47 316.434H236.477Z" fill="#202020"/>
</g>
<path d="M167.414 210.376C157.008 210.376 147.892 198.938 147.892 179.76C147.892 160.582 157.094 148.8 167.5 148.8C177.82 148.8 186.85 160.238 186.85 179.416C186.85 198.594 177.734 210.376 167.414 210.376ZM167.5 208.828C174.122 208.828 175.24 196.358 175.24 179.76C175.24 163.162 174.122 150.348 167.414 150.348C160.534 150.348 159.588 162.818 159.588 179.416C159.588 196.014 160.62 208.828 167.5 208.828ZM201.8 209.86C196.124 209.86 193.716 205.646 193.716 197.39V178.728C193.716 175.546 193.114 173.912 190.276 173.912H189.932V172.364L203.434 171.418V197.734C203.434 203.066 204.036 205.474 206.272 205.474C210.4 205.474 211.174 197.992 211.174 190.768V178.728C211.174 175.546 210.486 173.912 207.648 173.912H207.39V172.364L220.892 171.418V202.206C220.892 205.388 221.494 207.022 224.332 207.022H224.59V208.57L211.26 209.86L211.518 202.12H211.346C210.142 206.764 206.96 209.86 201.8 209.86ZM238.007 210.118C232.675 210.118 229.579 206.592 229.579 198.852V174.084H225.193V173.052C230.525 171.676 236.115 167.806 237.491 157.744H239.297V172.364H247.037V174.084H239.297V198.25C239.297 203.668 239.813 205.388 241.447 205.388C243.339 205.388 244.629 203.668 244.887 195.24H246.435C246.607 206.334 243.511 210.118 238.007 210.118ZM261.645 209.86C256.915 209.86 254.507 207.022 252.615 207.022C251.583 207.022 251.153 207.882 250.637 209.774H249.605V195.24H250.895C252.185 202.98 256.743 208.226 261.731 208.226C265.773 208.226 267.493 205.388 267.493 202.722C267.493 199.712 266.031 197.82 260.355 195.67C254.421 193.434 249.691 190.682 249.691 182.942C249.691 175.374 254.421 171.332 260.269 171.332C264.569 171.332 266.117 173.482 268.009 173.482C269.041 173.482 269.471 172.622 269.729 171.332H270.761V183.458H269.471C268.353 177.524 264.999 172.966 260.269 172.966C257.431 172.966 255.453 175.03 255.453 178.04C255.453 181.996 258.033 183.114 262.419 184.834C268.181 187.07 273.083 189.822 273.083 197.476C273.083 204.7 268.697 209.86 261.645 209.86ZM275.192 209V207.452H275.536C278.288 207.452 279.062 205.99 279.062 202.55V178.814C279.062 175.546 278.288 173.912 275.536 173.912H275.192V172.364L288.78 171.418V202.55C288.78 205.818 289.124 207.452 292.048 207.452H292.392V209H275.192ZM283.362 165.312C280.18 165.312 277.428 162.56 277.428 159.378C277.428 156.196 280.094 153.53 283.362 153.53C286.63 153.53 289.21 156.196 289.21 159.378C289.21 162.56 286.63 165.312 283.362 165.312ZM313.859 209.86L314.203 202.636H314.031C312.999 207.28 311.021 209.774 306.721 209.774C301.045 209.774 295.283 201.518 295.283 190.338C295.283 179.416 300.529 171.246 307.065 171.246C311.537 171.246 312.999 173.998 314.031 178.04L313.773 171.762V156.54C313.773 152.756 313.171 151.724 310.247 151.724H308.785V150.176L323.233 148.886V202.12C323.233 205.99 323.921 207.022 326.759 207.022H327.103V208.57L313.859 209.86ZM309.473 206.42C313.515 206.42 314.031 197.218 314.031 191.026C314.031 181.91 312.999 173.998 309.387 173.998C306.033 173.998 305.947 180.878 305.947 190.08C305.947 200.486 306.635 206.42 309.473 206.42ZM342.814 210.29C335.246 210.29 328.366 202.894 328.366 190.768C328.366 178.9 335.246 170.902 342.298 170.902C348.834 170.902 354.94 177.868 354.94 188.876L354.854 191.198H338.772C338.686 202.808 340.062 207.022 345.136 207.022C349.006 207.022 351.844 203.238 353.65 198.336L355.112 199.024C353.048 205.646 349.006 210.29 342.814 210.29ZM341.954 189.478C344.534 189.478 345.222 188.102 345.222 184.834C345.222 177.954 345.136 172.45 342.126 172.45C339.202 172.45 338.858 178.47 338.772 189.478H341.954Z" fill="#202020"/>
<defs>
<clipPath id="clip0_165_7">
<rect width="470" height="428.64" fill="white" transform="translate(0 -40)"/>
</clipPath>
</defs>
</svg>
