<svg width="422" height="425" viewBox="0 0 422 425" fill="none" xmlns="http://www.w3.org/2000/svg">
<path d="M273.812 82.1767L359.805 71.6631L342.647 156.532L415.275 203.73L347.548 257.717L372.836 340.53L286.228 338.381L252.339 418.069L187.384 360.776L110.173 400.044L97.2577 314.431L12.8502 294.908L58.0258 221.024L5.92188 151.85L88.0416 124.267L92.617 37.7997L173.26 69.4345L232.379 6.13599L273.812 82.1767Z" fill="#FFFDE6"/>
<path d="M253.707 424.096L186.827 365.117L107.335 405.551L94.0362 317.404L7.13832 297.311L53.6388 221.241L0 150.019L84.545 121.626L89.258 32.6044L172.283 65.1654L233.154 0L275.817 78.2838L364.351 67.4663L346.687 154.846L421.465 203.434L351.733 259.019L377.766 344.278L288.603 342.064L253.715 424.103L253.707 424.096ZM187.935 356.434L250.978 412.034L283.868 334.698L367.913 336.789L343.371 256.421L409.1 204.027L338.614 158.225L355.266 75.8598L271.814 86.0551L231.597 12.2646L174.23 73.6891L95.9692 42.995L91.524 126.908L11.8296 153.673L62.3915 220.807L18.5553 292.513L100.465 311.457L112.997 394.545L187.928 356.434H187.935Z" fill="#202020"/>
</svg>
