<svg width="433" height="389" viewBox="0 0 433 389" fill="none" xmlns="http://www.w3.org/2000/svg">
<g clip-path="url(#clip0_100_19)">
<path d="M273.805 46.7136L359.797 36.2072L342.632 121.076L415.268 168.275L347.541 222.261L372.829 305.074L286.221 302.925L252.332 382.605L187.37 325.32L110.166 364.588L97.2433 278.975L12.8431 259.453L58.0114 185.568L5.90747 116.387L88.0272 88.8113L92.6099 2.3438L173.253 33.9714L232.365 -29.3199L273.805 46.7136Z" fill="#202020"/>
<path d="M253.7 388.64L186.82 329.661L107.328 370.095L94.029 281.949L7.13108 261.855L53.6315 185.785L0 114.556L84.545 86.1631L89.258 -2.85865L172.283 29.7023L233.147 -35.4558L275.81 42.828L364.344 32.0105L346.679 119.39L421.458 167.978L351.725 223.563L377.759 308.822L288.595 306.608L253.707 388.647L253.7 388.64ZM187.92 320.978L250.963 376.578L283.853 299.249L367.899 301.34L343.356 220.973L409.085 168.579L338.6 122.776L355.251 40.4113L271.799 50.6137L231.583 -23.1767L174.216 38.2478L95.9547 7.55363L91.5096 91.4669L11.8152 118.232L62.3771 185.366L18.5408 257.072L100.451 276.015L112.982 359.104L187.913 320.993L187.92 320.978Z" fill="#202020"/>
<path d="M322.354 42.1767L408.347 31.6631L391.189 116.532L463.817 163.73L396.09 217.717L421.378 300.53L334.77 298.381L300.881 378.069L235.927 320.776L158.715 360.044L145.8 274.431L61.3925 254.908L106.568 181.024L54.4641 111.85L136.584 84.2672L141.159 -2.20027L221.802 29.4345L280.921 -33.864L322.354 42.1767Z" fill="#FFFDE6"/>
<path d="M302.249 384.096L235.369 325.117L155.877 365.551L142.578 277.404L55.6803 257.311L102.181 181.241L48.542 110.019L133.087 81.6261L137.8 -7.3956L220.825 25.1654L281.696 -40L324.359 38.2838L412.893 27.4663L395.229 114.846L470.007 163.434L400.275 219.019L426.308 304.278L337.145 302.064L302.257 384.103L302.249 384.096ZM236.477 316.434L299.52 372.034L332.41 294.698L416.455 296.789L391.913 216.421L457.642 164.027L387.156 118.225L403.808 35.8598L320.356 46.0551L280.139 -27.7354L222.772 33.6891L144.511 2.99496L140.066 86.9082L60.3716 113.673L110.934 180.807L67.0973 252.513L149.007 271.457L161.539 354.545L236.47 316.434H236.477Z" fill="#202020"/>
</g>
<defs>
<clipPath id="clip0_100_19">
<rect width="470" height="428.64" fill="white" transform="translate(0 -40)"/>
</clipPath>
</defs>
</svg>
